# AST/ASF file generated using VICON BodyLanguage
# -----------------------------------------------
:version 1.10
:name VICON
:units
  mass 1.0
  length 0.45
  angle deg
:documentation
   .ast/.asf automatically generated from VICON data using
   VICON BodyBuilder and BodyLanguage model FoxedUp or BRILLIANT.MOD
:root
   order TX TY TZ RX RY RZ
   axis XYZ
   position 0 0 0  
   orientation 0 0 0 
:bonedata
  begin
     id 1 
     name lhipjoint
     direction 0.64773 -0.699417 0.302095 
     length 2.48597 
     axis 0 0 0  XYZ
  end
  begin
     id 2 
     name lfemur
     direction 0.34202 -0.939693 0  
     length 6.71947  
     axis 0 0 20  XYZ
    dof rx ry rz
    limits (-160.0 20.0)
           (-70.0 70.0)
           (-60.0 70.0)
  end
  begin
     id 3 
     name ltibia
     direction 0.34202 -0.939693 0   
     length 8.08777   
     axis 0 0 20   XYZ
    dof rx
    limits (-10.0 170.0)
  end
  begin
     id 4 
     name lfoot
     direction 0.0808503 -0.222134 0.971658   
     length 2.08264   
     axis -90 7.62852e-016 20   XYZ
    dof rx rz
    limits (-45.0 90.0)
           (-70.0 20.0)
  end
  begin
     id 5 
     name ltoes
     direction 1.53502e-011 -4.22007e-011 1   
     length 1.04662   
     axis -90 7.62852e-016 20   XYZ
    dof rx
    limits (-90.0 20.0)
  end
  begin
     id 6 
     name rhipjoint
     direction -0.610924 -0.726792 0.313919   
     length 2.39233  
     axis 0 0 0  XYZ 
  end
  begin
     id 7 
     name rfemur
     direction -0.34202 -0.939693 0   
     length 6.96955   
     axis 0 0 -20   XYZ
    dof rx ry rz
    limits (-160.0 20.0)
           (-70.0 70.0)
           (-70.0 60.0)
  end
  begin
     id 8 
     name rtibia
     direction -0.34202 -0.939693 0   
     length 8.19584   
     axis 0 0 -20   XYZ
    dof rx
    limits (-10.0 170.0)
 end
 begin
     id 9 
     name rfoot
     direction -0.077777 -0.213691 0.9738   
     length 2.07539  
     axis -90 -7.62852e-016 -20   XYZ
    dof rx rz
    limits (-45.0 90.0)
           (-20.0 70.0)
  end
  begin
     id 10 
     name rtoes
     direction -1.53558e-011 -4.22006e-011 1   
     length 1.04381   
     axis -90 -7.62852e-016 -20   XYZ
    dof rx
    limits (-90.0 20.0)
  end
  begin
     id 11 
     name lowerback
     direction -0.00971646 0.996074 0.0879841   
     length 1.67643   
     axis 0 0 0   XYZ
    dof rx ry rz
    limits (-20.0 45.0)
           (-30.0 30.0)
           (-30.0 30.0)
  end
  begin
     id 12 
     name upperback
     direction 0.0127391 0.991676 0.128127   
     length 1.63741   
     axis 0 0 0   XYZ
    dof rx ry rz
    limits (-20.0 45.0)
           (-30.0 30.0)
           (-30.0 30.0)
  end
  begin
     id 13 
     name thorax
     direction 0.0167583 0.996049 0.0872067   
     length 1.65931   
     axis 0 0 0   XYZ
    dof rx ry rz
    limits (-20.0 45.0)
           (-30.0 30.0)
           (-30.0 30.0)
  end
  begin
     id 14 
     name lowerneck
     direction -0.0317829 0.998312 0.0486079   
     length 1.79021   
     axis 0 0 0   XYZ
    dof rx ry rz
    limits (-20.0 45.0)
           (-30.0 30.0)
           (-30.0 30.0)
  end
  begin
     id 15 
     name upperneck
     direction 0.0896851 0.972452 -0.215159   
     length 1.78797   
     axis 0 0 0   XYZ
    dof rx ry rz
    limits (-20.0 45.0)
           (-30.0 30.0)
           (-30.0 30.0)
  end
  begin
     id 16
     name head
     direction 0.0310949 0.996503 -0.0775582  
     length 1.81549  
     axis 0 0 0   XYZ
    dof rx ry rz
    limits (-20.0 45.0)
           (-30.0 30.0)
           (-30.0 30.0)
  end
  begin
     id 17 
     name lclavicle
     direction 0.853638 0.502051 -0.138733  
     length 3.31627  
     axis 0 0 0   XYZ
    dof ry rz
    limits (-20.0 10.0)
           (0.0 20.0)
  end
  begin
     id 18 
     name lhumerus
     direction 1 -4.48962e-011 -1.41788e-018   
     length 5.54893   
     axis 180 -30 -90   XYZ
    dof rx ry rz
    limits (-60.0 90.0)
           (-90.0 90.0)
           (-90.0 90.0)
  end
  begin
     id 19
     name lradius
     direction 1 -4.48962e-011 -4.95754e-027   
     length 3.02898   
     axis 180 -30 -90   XYZ
    dof rx
    limits (-10.0 170.0)
  end
  begin
     id 20
     name lwrist
     direction 1 -4.48952e-011 -1.03764e-026   
     length 1.51449   
     axis 9.09556e-015 90 90   XYZ
    dof ry
    limits (-180.0 0.0)
 end
  begin
     id 21 
     name lhand
     direction 1 -4.4902e-011 -2.07528e-026   
     length 0.640951   
     axis 1.3242e-014 90 90   XYZ
    dof rx rz
    limits (-90.0 90.0)
           (-45.0 45.0)
  end
  begin
     id 22 
     name lfingers
     direction 1 -4.49014e-011 -4.15056e-026   
     length 0.516751   
     axis 2.64841e-014 90 90   XYZ
    dof rx
    limits (0.0 90.0)
  end
  begin
     id 23
     name lthumb
     direction 0.707107 -6.35008e-011 0.707107   
     length 0.741954   
     axis -90 45 2.85299e-015   XYZ
    dof rx rz
    limits (-45.0 45.0)
           (-45.0 45.0)
  end
  begin
     id 24 
     name rclavicle
     direction -0.888531 0.455324 -0.0565039   
     length 3.20126  
     axis 0 0 0   XYZ 
    dof ry rz
    limits (-10.0 20.0)
           (-20.0 0.0)
  end
  begin
     id 25 
     name rhumerus
     direction -1 -4.48946e-011 -8.98298e-028  
     length 5.3519   
     axis 180 30 90   XYZ
    dof rx ry rz
    limits (-90.0 60.0)
           (-90.0 90.0)
           (-90.0 90.0)
  end
  begin
     id 26 
     name rradius
     direction -1 -4.4899e-011 -3.18779e-027   
     length 3.02531   
     axis 180 30 90   XYZ
    dof rx
    limits (-10.0 170.0)
  end
  begin
     id 27 
     name rwrist
     direction -1 -4.4897e-011 -1.03764e-026   
     length 1.51266   
     axis 9.09556e-015 -90 -90   XYZ
    dof ry
    limits (-180.0 0.0)
  end
  begin
     id 28
     name rhand
     direction -1 -4.48941e-011 -2.07528e-026   
     length 0.78389   
     axis 1.3242e-014 -90 -90   XYZ
    dof rx rz
    limits (-90.0 90.0)
           (-45.0 45.0)
  end
  begin
     id 29
     name rfingers
     direction -1 -4.49012e-011 -4.15056e-026   
     length 0.631992   
     axis 2.64841e-014 -90 -90   XYZ
    dof rx
    limits (0.0 90.0)
  end
  begin
     id 30
     name rthumb
     direction -0.707107 -6.3496e-011 0.707107   
     length 0.907418   
     axis -90 -45 -2.85299e-015   XYZ
    dof rx rz
    limits (-45.0 45.0)
           (-45.0 45.0)
  end
:hierarchy
  begin
    root lhipjoint rhipjoint lowerback
    lhipjoint lfemur
    lfemur ltibia
    ltibia lfoot
    lfoot ltoes
    rhipjoint rfemur
    rfemur rtibia
    rtibia rfoot
    rfoot rtoes
    lowerback upperback
    upperback thorax
    thorax lowerneck lclavicle rclavicle
    lowerneck upperneck
    upperneck head
    lclavicle lhumerus
    lhumerus lradius
    lradius lwrist
    lwrist lhand lthumb
    lhand lfingers
    rclavicle rhumerus
    rhumerus rradius
    rradius rwrist
    rwrist rhand rthumb
    rhand rfingers
  end

#!OML:ASF E:\Style3\Style3.ASF
:FULLY-SPECIFIED
:DEGREES
334
root 0.801871 17.7986 0.667649 -167.489 88.4918 177.351
lowerback -12.8619 -2.15513 -1.11194
upperback -11.0746 -2.03809 1.51033
thorax -4.38316 -0.60163 2.00323
lowerneck -14.7352 -2.68485 -4.75094
upperneck 27.4267 -3.90829 6.33212
head 11.6025 -1.25816 2.64461
rclavicle -2.91716e-014 3.97569e-016
rhumerus 46.3706 56.0319 0.0984997
rradius 103.375
rwrist -33.0418
rhand 1.47627 19.8461
rfingers 7.12502
rthumb 27.0036 -8.24377
lclavicle -2.91716e-014 3.97569e-016
lhumerus 32.3045 -58.6406 7.16161
lradius 103.931
lwrist 23.6376
lhand -1.46215 11.235
lfingers 7.12502
lthumb 24.1892 39.7296
rfemur -12.4992 12.0345 18.3038
rtibia 14.7452
rfoot -16.3436 -23.7612
rtoes -12.5608
lfemur -4.88529 -21.0851 -14.4026
ltibia 3.18055e-015
lfoot -10.7714 25.0956
ltoes -13.1618
335
root 0.803762 17.7968 0.667057 -167.874 88.5476 176.962
lowerback -13.0261 -2.13286 -1.08913
upperback -10.9576 -2.0188 1.47087
thorax -4.17056 -0.601369 1.94484
lowerneck -14.7825 -2.69737 -4.76558
upperneck 27.2641 -3.95656 6.45454
head 11.5558 -1.27021 2.68133
rclavicle 6.75868e-015 -3.97569e-016
rhumerus 45.467 54.9596 -1.10007
rradius 103.594
rwrist -33.6997
rhand 3.43369 19.3809
rfingers 7.12502
rthumb 28.8749 -8.40427
lclavicle 6.75868e-015 -3.97569e-016
lhumerus 31.4739 -57.3917 8.13506
lradius 104.312
lwrist 24.1254
lhand 0.136851 11.6882
lfingers 7.12502
lthumb 25.7214 39.97
rfemur -12.5216 12.0416 18.2804
rtibia 14.7713
rfoot -16.3642 -23.7213
rtoes -12.7867
lfemur -4.8638 -21.0333 -14.4344
ltibia -6.36111e-015
lfoot -10.7702 25.0955
ltoes -13.4128
336
root 0.80284 17.7951 0.667812 -167.75 88.5841 177.087
lowerback -13.0032 -2.13345 -1.11442
upperback -10.9231 -2.02203 1.47067
thorax -4.14435 -0.603781 1.95857
lowerneck -14.8506 -2.69992 -4.78377
upperneck 27.209 -3.97569 6.52812
head 11.5518 -1.27257 2.70741
rclavicle -2.95195e-014 1.70955e-014
rhumerus 44.5645 53.8802 -2.31101
rradius 103.806
rwrist -34.2239
rhand 5.49158 19.259
rfingers 7.12502
rthumb 30.8387 -8.17307
lclavicle -2.95195e-014 1.70955e-014
lhumerus 30.3916 -55.9198 9.407
lradius 104.786
lwrist 24.7797
lhand 2.4469 12.4005
lfingers 7.12502
lthumb 27.9319 40.3429
rfemur -12.5524 12.0617 18.2762
rtibia 14.8134
rfoot -16.4561 -23.6864
rtoes -12.5055
lfemur -4.86524 -20.9953 -14.4271
ltibia -2.06736e-014
lfoot -10.8427 25.0634
ltoes -13.1663
337
root 0.802599 17.7939 0.668156 -168.278 88.6357 176.557
lowerback -13.0589 -2.10998 -1.12044
upperback -10.8551 -1.99673 1.43276
thorax -4.04264 -0.59606 1.92218
lowerneck -14.8818 -2.71179 -4.75628
upperneck 27.0991 -4.01156 6.57056
head 11.5187 -1.2834 2.71014
rclavicle -1.88348e-014 -4.17448e-015
rhumerus 43.5893 52.6549 -3.56113
rradius 104.121
rwrist -34.5634
rhand 7.412 19.3018
rfingers 7.12502
rthumb 32.6678 -7.7679
lclavicle -1.88348e-014 -4.17448e-015
lhumerus 29.4384 -54.2078 10.6879
lradius 105.301
lwrist 25.8041
lhand 5.0014 13.2048
lfingers 7.12502
lthumb 30.3713 40.7242
rfemur -12.5618 12.0587 18.2575
rtibia 14.8154
rfoot -16.5159 -23.6186
rtoes -12.2893
lfemur -4.85516 -20.9458 -14.4426
ltibia -1.43125e-014
lfoot -10.9895 25.0116
ltoes -12.6722
338
root 0.803994 17.7934 0.668453 -170.081 88.712 174.732
lowerback -13.7204 -2.09582 -1.13899
upperback -10.4665 -1.99586 1.38449
thorax -3.26987 -0.616373 1.86006
lowerneck -14.9746 -2.72621 -4.76894
upperneck 26.7493 -4.05453 6.67198
head 11.409 -1.30119 2.73374
rclavicle 5.91384e-015 1.05356e-014
rhumerus 42.9157 50.9169 -4.60341
rradius 104.427
rwrist -34.7553
rhand 8.75658 19.4454
rfingers 7.12502
rthumb 33.9461 -7.3503
lclavicle 5.91384e-015 1.05356e-014
lhumerus 28.6977 -51.904 11.8321
lradius 105.823
lwrist 27.0732
lhand 7.69909 14.2374
lfingers 7.12502
lthumb 32.9409 41.25
rfemur -12.5855 11.9841 18.2072
rtibia 14.7909
rfoot -16.4038 -23.5612
rtoes -12.7123
lfemur -4.85307 -20.8763 -14.4922
ltibia 1.74931e-014
lfoot -11.0941 24.9427
ltoes -12.3752
339
root 0.80468 17.7925 0.668723 -168.679 88.7645 176.118
lowerback -13.99 -2.05349 -1.10579
upperback -10.3018 -1.95124 1.37079
thorax -2.95233 -0.604267 1.82324
lowerneck -14.8933 -2.76947 -4.81545
upperneck 26.4561 -4.11901 6.732
head 11.2879 -1.33681 2.74721
rclavicle 2.15184e-014 -8.15017e-015
rhumerus 42.1519 49.3852 -5.65718
rradius 104.73
rwrist -35.0864
rhand 9.74155 19.5098
rfingers 7.12502
rthumb 34.8812 -7.0739
lclavicle 2.15184e-014 -8.15017e-015
lhumerus 27.9276 -49.7208 13.0746
lradius 106.429
lwrist 28.5322
lhand 10.4551 15.4989
lfingers 7.12502
lthumb 35.5578 41.9229
rfemur -12.59 11.9265 18.2397
rtibia 14.7627
rfoot -16.3271 -23.4812
rtoes -13.0367
lfemur -4.85237 -20.8172 -14.4669
ltibia -1.90833e-014
lfoot -10.9866 24.9586
ltoes -12.7726
340
root 0.801641 17.7924 0.670804 -163.994 88.7589 180.746
lowerback -13.2321 -1.9736 -0.808548
upperback -10.7325 -1.85563 1.24002
thorax -3.83838 -0.556986 1.5533
lowerneck -14.7808 -2.82991 -4.762
upperneck 26.6949 -4.24175 6.79818
head 11.3655 -1.37145 2.75239
rclavicle 5.46658e-015 -2.78299e-015
rhumerus 40.9148 48.4989 -7.1278
rradius 105.163
rwrist -35.5775
rhand 10.5054 19.4113
rfingers 7.12502
rthumb 35.6055 -7.00116
lclavicle 5.46658e-015 -2.78299e-015
lhumerus 27.0271 -48.0387 14.3098
lradius 107.112
lwrist 30.2023
lhand 13.3238 16.8929
lfingers 7.12502
lthumb 38.2716 42.6177
rfemur -12.6577 11.9526 18.3455
rtibia 14.7437
rfoot -16.299 -23.4986
rtoes -12.9986
lfemur -4.93946 -20.7891 -14.3129
ltibia 3.02153e-014
lfoot -10.8665 24.9674
ltoes -13.0421
341
root 0.800135 17.7928 0.672875 -162.589 88.7844 182.112
lowerback -13.0078 -1.9093 -0.812468
upperback -10.83 -1.76691 1.20378
thorax -4.06801 -0.50901 1.53233
lowerneck -14.824 -2.90929 -4.84793
upperneck 26.7375 -4.36591 6.9179
head 11.4047 -1.41923 2.79507
rclavicle -9.24349e-015 -8.94531e-015
rhumerus 39.8748 47.0161 -8.31704
rradius 105.556
rwrist -36.2082
rhand 11.2034 19.4115
rfingers 7.12502
rthumb 36.2668 -6.83901
lclavicle -9.24349e-015 -8.94531e-015
lhumerus 26.2869 -45.6931 15.7314
lradius 107.64
lwrist 32.1459
lhand 16.3179 18.3916
lfingers 7.12502
lthumb 41.0907 43.2791
rfemur -12.6865 11.9912 18.3648
rtibia 14.6912
rfoot -16.3155 -23.4635
rtoes -12.7792
lfemur -4.99226 -20.7491 -14.2537
ltibia 6.52014e-014
lfoot -10.8883 24.9449
ltoes -12.9102
342
root 0.801141 17.7934 0.674555 -161.145 88.8289 183.529
lowerback -12.9739 -1.87954 -0.877153
upperback -10.8191 -1.72352 1.21715
thorax -4.07349 -0.48345 1.58722
lowerneck -14.9346 -2.95372 -4.90402
upperneck 26.7644 -4.43571 6.99568
head 11.446 -1.44483 2.82387
rclavicle -2.65874e-014 -1.98785e-015
rhumerus 39.0458 45.2708 -9.40919
rradius 105.883
rwrist -36.7838
rhand 11.5757 19.4015
rfingers 7.12502
rthumb 36.6192 -6.76047
lclavicle -2.65874e-014 -1.98785e-015
lhumerus 25.5231 -43.0067 17.1836
lradius 108.077
lwrist 34.3709
lhand 19.1953 19.6431
lfingers 7.12502
lthumb 43.7847 43.6058
rfemur -12.7048 11.9614 18.3924
rtibia 14.6532
rfoot -16.2251 -23.402
rtoes -12.9921
lfemur -5.00635 -20.6934 -14.2226
ltibia 2.22639e-014
lfoot -10.8283 24.9432
ltoes -13.0726
